<svg width="1728" height="1117" viewBox="0 0 1728 1117" fill="none" xmlns="http://www.w3.org/2000/svg">
<path opacity="0.0144928" d="M1656.23 1189.65C1665.29 1194.45 1676.43 1192.69 1683.55 1185.32L1909.89 951.239C1914.1 946.881 1916.42 941.035 1916.35 934.974L1910.73 468.909C1910.67 464.142 1909.14 459.51 1906.33 455.655L1666.19 125.549C1661.1 118.559 1652.53 115.01 1643.99 116.362L1363.54 160.781C1355 162.134 1347.94 168.159 1345.27 176.378L1218.88 564.537C1217.41 569.07 1217.37 573.949 1218.79 578.501L1357.47 1023.49C1359.28 1029.28 1363.29 1034.12 1368.65 1036.96L1656.23 1189.65Z" stroke="url(#paint0_linear_3_108)" stroke-width="4"/>
<path opacity="0.0289855" d="M1605.08 1188.16C1613.86 1193.4 1625.04 1192.23 1632.53 1185.27L1869.45 965.326C1873.9 961.195 1876.53 955.473 1876.78 949.408L1895.61 487.976C1895.8 483.198 1894.5 478.478 1891.89 474.473L1670.81 135.496C1666.09 128.265 1657.73 124.284 1649.14 125.186L1368.43 154.69C1359.84 155.592 1352.49 161.227 1349.38 169.28L1203.6 546.815C1201.88 551.276 1201.59 556.163 1202.78 560.796L1317.13 1008.23C1318.63 1014.11 1322.4 1019.16 1327.61 1022.27L1605.08 1188.16Z" stroke="url(#paint1_linear_3_108)" stroke-width="4"/>
<path opacity="0.0434783" d="M1554.32 1185.12C1562.8 1190.78 1573.99 1190.2 1581.83 1183.67L1828.47 978.325C1833.14 974.435 1836.09 968.853 1836.65 962.8L1879.43 507.271C1879.88 502.496 1878.82 497.7 1876.41 493.555L1674.66 146.788C1670.32 139.336 1662.18 134.934 1653.58 135.385L1373.39 150.069C1364.78 150.52 1357.15 155.749 1353.61 163.613L1189.22 529.569C1187.25 533.944 1186.7 538.824 1187.65 543.526L1277.8 992.088C1279 998.049 1282.51 1003.29 1287.56 1006.67L1554.32 1185.12Z" stroke="url(#paint2_linear_3_108)" stroke-width="4"/>
<path opacity="0.057971" d="M1504.04 1180.56C1512.19 1186.64 1523.37 1186.64 1531.52 1180.56L1787.02 990.219C1791.91 986.581 1795.15 981.155 1796.03 975.131L1862.19 526.736C1862.89 521.977 1862.09 517.117 1859.88 512.841L1677.67 159.37C1673.72 151.717 1665.83 146.908 1657.22 146.908L1378.34 146.908C1369.73 146.908 1361.84 151.717 1357.9 159.37L1175.68 512.841C1173.48 517.117 1172.67 521.977 1173.37 526.736L1239.53 975.131C1240.42 981.155 1243.66 986.581 1248.54 990.219L1504.04 1180.56Z" stroke="url(#paint3_linear_3_108)" stroke-width="4"/>
<path opacity="0.0724638" d="M1454.31 1174.54C1462.13 1181 1473.25 1181.58 1481.7 1175.97L1745.16 1000.99C1750.24 997.616 1753.77 992.363 1754.98 986.385L1843.89 546.313C1844.85 541.583 1844.29 536.671 1842.3 532.274L1679.77 173.184C1676.22 165.351 1668.6 160.149 1660.02 159.699L1383.2 145.192C1374.62 144.742 1366.5 149.119 1362.15 156.538L1162.97 496.672C1160.54 500.837 1159.47 505.663 1159.92 510.468L1202.35 957.424C1202.92 963.494 1205.89 969.088 1210.58 972.974L1454.31 1174.54Z" stroke="url(#paint4_linear_3_108)" stroke-width="4"/>
<path opacity="0.0869565" d="M1405.22 1167.08C1412.67 1173.91 1423.71 1175.07 1432.43 1169.94L1702.95 1010.63C1708.21 1007.53 1712.03 1002.46 1713.55 996.55L1824.53 565.942C1825.73 561.253 1825.43 556.303 1823.66 551.796L1680.9 188.169C1677.76 180.177 1670.43 174.597 1661.89 173.7L1387.9 144.901C1379.36 144.004 1371.03 147.938 1366.3 155.103L1151.05 481.102C1148.38 485.142 1147.06 489.922 1147.27 494.759L1166.29 939.03C1166.55 945.132 1169.22 950.88 1173.73 955.006L1405.22 1167.08Z" stroke="url(#paint5_linear_3_108)" stroke-width="4"/>
<path opacity="0.101449" d="M1356.83 1158.24C1363.9 1165.42 1374.83 1167.15 1383.78 1162.51L1660.46 1019.13C1665.89 1016.32 1669.98 1011.45 1671.81 1005.62L1804.1 585.564C1805.56 580.931 1805.52 575.956 1803.97 571.35L1681.01 204.26C1678.29 196.13 1671.27 190.19 1662.8 188.848L1392.35 146.013C1383.88 144.672 1375.37 148.152 1370.26 155.043L1139.88 466.168C1136.99 470.071 1135.41 474.79 1135.37 479.646L1131.38 920.021C1131.32 926.138 1133.71 932.026 1138 936.381L1356.83 1158.24Z" stroke="url(#paint6_linear_3_108)" stroke-width="4"/>
<path opacity="0.115942" d="M1309.2 1148.08C1315.89 1155.59 1326.68 1157.88 1335.84 1153.74L1617.74 1026.48C1623.33 1023.96 1627.67 1019.32 1629.82 1013.58L1782.63 605.123C1784.34 600.559 1784.55 595.57 1783.24 590.877L1680.04 221.391C1677.74 213.145 1671.05 206.86 1662.67 205.08L1396.48 148.499C1388.11 146.719 1379.44 149.738 1373.98 156.335L1129.42 451.903C1126.32 455.658 1124.48 460.302 1124.18 465.166L1097.65 900.465C1097.28 906.58 1099.36 912.591 1103.44 917.165L1309.2 1148.08Z" stroke="url(#paint7_linear_3_108)" stroke-width="4"/>
<path opacity="0.130435" d="M1262.42 1136.65C1268.7 1144.46 1279.32 1147.3 1288.66 1143.68L1574.87 1032.7C1580.59 1030.48 1585.19 1026.06 1587.64 1020.44L1760.12 624.562C1762.07 620.08 1762.55 615.091 1761.47 610.321L1677.96 239.492C1676.08 231.152 1669.73 224.542 1661.47 222.329L1400.23 152.33C1391.97 150.118 1383.17 152.668 1377.37 158.951L1119.63 438.341C1116.32 441.935 1114.23 446.492 1113.68 451.35L1065.12 880.43C1064.43 886.527 1066.2 892.648 1070.05 897.43L1262.42 1136.65Z" stroke="url(#paint8_linear_3_108)" stroke-width="4"/>
<path opacity="0.144928" d="M1216.54 1124C1222.4 1132.09 1232.81 1135.47 1242.31 1132.37L1531.89 1037.76C1537.74 1035.85 1542.57 1031.69 1545.32 1026.19L1736.58 643.824C1738.78 639.437 1739.51 634.462 1738.68 629.628L1674.7 258.493C1673.25 250.081 1667.26 243.163 1659.14 240.526L1403.52 157.471C1395.41 154.833 1386.49 156.908 1380.38 162.862L1110.47 425.511C1106.95 428.933 1104.63 433.389 1103.82 438.229L1033.81 859.988C1032.8 866.051 1034.26 872.266 1037.87 877.244L1216.54 1124Z" stroke="url(#paint9_linear_3_108)" stroke-width="4"/>
<path opacity="0.15942" d="M1171.61 1110.2C1177.04 1118.55 1187.22 1122.46 1196.84 1119.88L1488.89 1041.7C1494.83 1040.1 1499.89 1036.19 1502.93 1030.84L1712.03 662.855C1714.47 658.576 1715.46 653.629 1714.87 648.742L1670.24 278.32C1669.22 269.858 1663.6 262.653 1655.65 259.599L1406.3 163.882C1398.34 160.828 1389.34 162.424 1382.92 168.031L1101.89 413.442C1098.19 416.679 1095.62 421.022 1094.56 425.829L1003.72 839.21C1002.4 845.222 1003.54 851.515 1006.9 856.677L1171.61 1110.2Z" stroke="url(#paint10_linear_3_108)" stroke-width="4"/>
<path opacity="0.173913" d="M1127.69 1095.31C1132.67 1103.9 1142.61 1108.32 1152.32 1106.27L1445.9 1044.5C1451.94 1043.23 1457.21 1039.59 1460.53 1034.4L1686.5 681.602C1689.16 677.442 1690.42 672.536 1690.07 667.608L1664.53 298.898C1663.95 290.408 1658.72 282.937 1650.94 279.475L1408.48 171.523C1400.71 168.062 1391.66 169.177 1384.95 174.42L1093.86 402.156C1089.97 405.199 1087.16 409.415 1085.85 414.178L974.874 818.167C973.241 824.113 974.064 830.466 977.159 835.8L1127.69 1095.31Z" stroke="url(#paint11_linear_3_108)" stroke-width="4"/>
<path opacity="0.188406" d="M1084.84 1079.4C1089.36 1088.2 1099.02 1093.12 1108.8 1091.61L1403 1046.19C1409.11 1045.25 1414.58 1041.89 1418.18 1036.87L1659.99 700.011C1662.88 695.985 1664.4 691.132 1664.3 686.176L1657.56 320.15C1657.4 311.655 1652.57 303.938 1645 300.081L1410.02 180.35C1402.45 176.493 1393.37 177.123 1386.4 181.99L1086.32 391.677C1082.25 394.516 1079.22 398.592 1077.66 403.298L947.271 796.93C945.329 802.793 945.826 809.192 948.652 814.684L1084.84 1079.4Z" stroke="url(#paint12_linear_3_108)" stroke-width="4"/>
<path opacity="0.202899" d="M1043.09 1062.54C1047.15 1071.52 1056.5 1076.92 1066.32 1075.95L1360.25 1046.78C1366.4 1046.17 1372.05 1043.1 1375.92 1038.27L1632.55 718.035C1635.66 714.153 1637.43 709.366 1637.59 704.393L1649.29 342C1649.56 333.522 1645.14 325.581 1637.8 321.34L1410.86 190.314C1403.51 186.073 1394.42 186.219 1387.22 190.696L1079.23 382.024C1075 384.649 1071.74 388.575 1069.93 393.21L920.911 775.571C918.664 781.336 918.835 787.762 921.384 793.4L1043.09 1062.54Z" stroke="url(#paint13_linear_3_108)" stroke-width="4"/>
<path opacity="0.217391" d="M1002.49 1044.79C1006.08 1053.95 1015.1 1059.8 1024.92 1059.36L1317.69 1046.29C1323.88 1046.01 1329.7 1043.25 1333.82 1038.62L1604.19 735.621C1607.51 731.895 1609.53 727.19 1609.94 722.214L1639.69 364.37C1640.4 355.931 1636.4 347.788 1629.3 343.176L1410.93 201.366C1403.83 196.754 1394.77 196.418 1387.34 200.491L1072.54 373.216C1068.16 375.618 1064.68 379.379 1062.63 383.931L895.791 754.16C893.245 759.81 893.087 766.249 895.353 772.017L1002.49 1044.79Z" stroke="url(#paint14_linear_3_108)" stroke-width="4"/>
<path opacity="0.231884" d="M963.07 1026.24C966.189 1035.53 974.852 1041.83 984.652 1041.92L1275.39 1044.73C1281.59 1044.79 1287.56 1042.34 1291.94 1037.94L1574.94 752.725C1578.47 749.167 1580.74 744.554 1581.41 739.588L1628.77 387.18C1629.89 378.801 1626.33 370.48 1619.49 365.51L1410.2 213.453C1403.36 208.483 1394.35 207.667 1386.72 211.327L1066.2 365.266C1061.68 367.436 1058 371.021 1055.7 375.477L871.905 732.766C869.066 738.286 868.577 744.72 870.553 750.606L963.07 1026.24Z" stroke="url(#paint15_linear_3_108)" stroke-width="4"/>
<path opacity="0.246377" d="M924.871 1006.95C927.509 1016.36 935.799 1023.07 945.546 1023.7L1233.39 1042.15C1239.6 1042.55 1245.7 1040.41 1250.31 1036.24L1544.84 769.3C1548.57 765.922 1551.09 761.415 1552.01 756.471L1616.49 410.352C1618.04 402.055 1614.91 393.578 1608.35 388.266L1408.61 226.518C1402.05 221.207 1393.11 219.915 1385.32 223.152L1060.17 358.186C1055.52 360.115 1051.64 363.514 1049.11 367.861L849.241 711.46C846.114 716.835 845.297 723.248 846.976 729.235L924.871 1006.95Z" stroke="url(#paint16_linear_3_108)" stroke-width="4"/>
<path opacity="0.26087" d="M887.919 987.01C890.072 996.502 897.967 1003.61 907.632 1004.76L1191.76 1038.55C1197.94 1039.29 1204.16 1037.48 1209 1033.55L1513.93 785.305C1517.84 782.117 1520.6 777.729 1521.78 772.818L1602.86 433.807C1604.82 425.613 1602.14 417.003 1595.88 411.365L1406.12 240.507C1399.86 234.869 1391.02 233.106 1383.07 235.912L1054.39 351.984C1049.63 353.666 1045.56 356.868 1042.8 361.095L827.784 690.308C824.377 695.523 823.232 701.897 824.611 707.973L887.919 987.01Z" stroke="url(#paint17_linear_3_108)" stroke-width="4"/>
<path opacity="0.275362" d="M852.234 966.482C853.902 976.036 861.384 983.518 870.938 985.186L1150.53 1033.98C1156.68 1035.05 1163 1033.58 1168.04 1029.9L1482.24 800.697C1486.33 797.71 1489.32 793.453 1490.75 788.589L1587.87 457.466C1590.24 449.395 1588.01 440.676 1582.06 434.729L1402.69 255.358C1396.74 249.41 1388.02 247.183 1379.95 249.55L1048.83 346.669C1043.97 348.096 1039.71 351.089 1036.72 355.184L807.515 669.376C803.837 674.418 802.366 680.738 803.438 686.886L852.234 966.482Z" stroke="url(#paint18_linear_3_108)" stroke-width="4"/>
<path opacity="0.289855" d="M817.839 945.447C819.02 955.038 826.071 962.869 835.486 965.046L1109.77 1028.46C1115.86 1029.87 1122.26 1028.74 1127.5 1025.33L1449.8 815.438C1454.07 812.661 1457.29 808.549 1458.97 803.744L1571.52 481.25C1574.29 473.324 1572.52 464.52 1566.9 458.281L1398.28 271.011C1392.66 264.772 1384.09 262.089 1375.92 264.012L1043.43 342.243C1038.47 343.408 1034.05 346.184 1030.84 350.134L788.413 648.731C784.473 653.585 782.677 659.834 783.441 666.039L817.839 945.447Z" stroke="url(#paint19_linear_3_108)" stroke-width="4"/>
<path opacity="0.304348" d="M784.747 923.983C785.442 933.586 792.045 941.74 801.293 944.416L1069.51 1022.03C1075.52 1023.77 1081.99 1022.98 1087.41 1019.85L1416.67 829.495C1421.09 826.938 1424.54 822.98 1426.46 818.248L1553.83 505.082C1556.98 497.32 1555.67 488.455 1550.4 481.943L1392.86 287.403C1387.59 280.891 1379.19 277.762 1370.94 279.236L1038.14 338.707C1033.11 339.606 1028.52 342.154 1025.1 345.949L770.451 628.436C766.258 633.088 764.143 639.249 764.595 645.496L784.747 923.983Z" stroke="url(#paint20_linear_3_108)" stroke-width="4"/>
<path opacity="0.318841" d="M752.966 902.166C753.178 911.756 759.319 920.209 768.374 923.373L1029.79 1014.72C1035.71 1016.79 1042.22 1016.35 1047.81 1013.5L1382.88 842.83C1387.45 840.502 1391.11 836.712 1393.28 832.064L1534.79 528.886C1538.33 521.307 1537.47 512.405 1532.56 505.638L1386.4 304.473C1381.48 297.707 1373.28 294.141 1364.98 295.164L1032.91 336.062C1027.82 336.689 1023.09 339 1019.46 342.628L753.601 608.551C749.164 612.988 746.733 619.046 746.872 625.319L752.966 902.166Z" stroke="url(#paint21_linear_3_108)" stroke-width="4"/>
<path opacity="0.333333" d="M722.505 880.075C722.235 889.627 727.901 898.351 736.736 901.99L990.659 1006.57C996.471 1008.97 1003.01 1008.88 1008.76 1006.33L1348.47 855.415C1353.18 853.324 1357.05 849.713 1359.46 845.161L1514.43 552.585C1518.33 545.208 1517.94 536.294 1513.39 529.293L1378.87 322.154C1374.33 315.153 1366.35 311.165 1358.02 311.734L1027.71 334.302C1022.57 334.653 1017.69 336.719 1013.87 340.169L737.829 589.136C733.161 593.346 730.42 599.284 730.243 605.567L722.505 880.075Z" stroke="url(#paint22_linear_3_108)" stroke-width="4"/>
<path opacity="0.347826" d="M693.362 857.785C692.617 867.274 697.795 876.242 706.386 880.342L952.155 997.628C957.839 1000.34 964.387 1000.6 970.27 998.356L1313.5 867.221C1318.34 865.375 1322.4 861.953 1325.05 857.51L1492.76 576.106C1497.02 568.95 1497.09 560.046 1492.92 552.832L1370.26 340.381C1366.1 333.167 1358.36 328.768 1350.03 328.883L1022.47 333.421C1017.3 333.493 1012.3 335.305 1008.28 338.566L723.101 570.247C718.213 574.218 715.167 580.021 714.674 586.3L693.362 857.785Z" stroke="url(#paint23_linear_3_108)" stroke-width="4"/>
<path opacity="0.362319" d="M665.536 835.372C664.322 844.775 669.002 853.96 677.323 858.505L914.313 987.928C919.85 990.952 926.387 991.568 932.392 989.633L1278.01 878.221C1282.96 876.628 1287.21 873.407 1290.1 869.084L1469.81 599.378C1474.42 592.459 1474.93 583.591 1471.16 576.183L1360.54 359.089C1356.77 351.681 1349.29 346.887 1340.98 346.55L1017.16 333.41C1011.97 333.199 1006.86 334.752 1002.66 337.816L709.377 551.941C704.282 555.662 700.938 561.312 700.13 567.57L665.536 835.372Z" stroke="url(#paint24_linear_3_108)" stroke-width="4"/>
<path opacity="0.376812" d="M639.019 812.912C637.342 822.205 641.515 831.578 649.543 836.55L877.163 977.515C882.538 980.843 889.046 981.813 895.157 980.195L1242.05 888.395C1247.09 887.06 1251.53 884.05 1254.64 879.859L1445.6 622.329C1450.54 615.665 1451.51 606.855 1448.13 599.275L1349.71 378.212C1346.33 370.632 1339.14 365.457 1330.88 364.67L1011.72 334.258C1006.53 333.763 1001.32 335.049 996.953 337.904L696.617 534.268C691.326 537.727 687.692 543.212 686.569 549.433L639.019 812.912Z" stroke="url(#paint25_linear_3_108)" stroke-width="4"/>
<path opacity="0.391304" d="M613.799 790.478C611.668 799.637 615.327 809.171 623.04 814.552L840.74 966.434C845.934 970.058 852.394 971.38 858.595 970.087L1205.66 897.72C1210.79 896.65 1215.4 893.861 1218.73 889.814L1420.16 644.893C1425.42 638.499 1426.84 629.77 1423.87 622.04L1337.75 397.682C1334.78 389.953 1327.89 384.414 1319.7 383.181L1006.12 335.952C1000.94 335.172 995.648 336.185 991.121 338.822L684.777 517.275C679.304 520.463 675.387 525.768 673.952 531.937L673.952 531.938L613.799 790.478Z" stroke="url(#paint26_linear_3_108)" stroke-width="4"/>
<path opacity="0.405797" d="M589.859 768.142C587.283 777.146 590.424 786.813 597.8 792.583L805.069 954.732C810.067 958.642 816.459 960.313 822.732 959.35L1168.9 906.181C1174.1 905.382 1178.88 902.822 1182.42 898.93L1393.53 667.002C1399.09 660.892 1400.95 652.269 1398.4 644.412L1324.65 417.435C1322.1 409.578 1315.53 403.693 1307.43 402.019L1000.32 338.475C995.162 337.409 989.797 338.143 985.118 340.555L673.809 501.013C668.168 503.921 663.979 509.03 662.234 515.132L589.859 768.142Z" stroke="url(#paint27_linear_3_108)" stroke-width="4"/>
<path opacity="0.42029" d="M567.18 745.977C564.171 754.803 566.788 764.573 573.808 770.712L770.174 942.455C774.96 946.642 781.266 948.659 787.594 948.029L1131.82 913.762C1137.08 913.238 1142 910.917 1145.75 907.19L1365.75 688.593C1371.6 682.783 1373.89 674.288 1371.76 666.325L1310.42 437.404C1308.28 429.442 1302.05 423.23 1294.08 421.122L994.259 341.811C989.147 340.459 983.726 340.909 978.907 343.086L663.665 485.522C657.871 488.141 653.418 493.041 651.366 499.06L567.18 745.977Z" stroke="url(#paint28_linear_3_108)" stroke-width="4"/>
<path opacity="0.434783" d="M545.739 724.05C542.308 732.677 544.4 742.522 551.044 749.008L736.078 929.652C740.637 934.103 746.839 936.462 753.204 936.169L1094.46 920.453C1099.77 920.208 1104.83 918.134 1108.78 914.583L1336.86 709.607C1342.97 704.11 1345.69 695.763 1343.98 687.718L1295.05 457.525C1293.34 449.48 1287.46 442.96 1279.64 440.426L987.911 345.938C982.857 344.301 977.392 344.464 972.445 346.399L654.296 470.844C648.362 473.165 643.656 477.843 641.301 483.764L545.739 724.05Z" stroke="url(#paint29_linear_3_108)" stroke-width="4"/>
<path opacity="0.449275" d="M525.507 702.43C521.667 710.838 523.233 720.728 529.483 727.537L702.801 916.369C707.118 921.073 713.195 923.771 719.579 923.817L1056.89 926.244C1062.23 926.282 1067.41 924.464 1071.55 921.099L1306.89 729.986C1313.26 724.813 1316.39 716.638 1315.11 708.533L1278.55 477.732C1277.27 469.628 1271.77 462.82 1264.11 459.869L981.232 350.833C976.252 348.913 970.759 348.786 965.695 350.472L645.645 457.014C639.588 459.031 634.641 463.475 631.989 469.282L525.507 702.43Z" stroke="url(#paint30_linear_3_108)" stroke-width="4"/>
<path opacity="0.463768" d="M506.454 681.18C502.219 689.349 503.26 699.256 509.101 706.366L670.356 902.659C674.417 907.602 680.354 910.631 686.74 911.017L1019.14 931.131C1024.5 931.455 1029.79 929.898 1034.12 926.73L1275.91 749.674C1282.51 744.837 1286.05 736.855 1285.19 728.713L1260.94 497.963C1260.08 489.822 1254.96 482.749 1247.5 479.391L974.185 356.474C969.294 354.275 963.787 353.854 958.618 355.283L637.661 444.068C631.495 445.774 626.318 449.971 623.374 455.65L506.454 681.18Z" stroke="url(#paint31_linear_3_108)" stroke-width="4"/>
<path opacity="0.478261" d="M488.545 660.364C483.93 668.275 484.449 678.17 489.865 685.556L638.761 888.569C642.552 893.738 648.328 897.09 654.697 897.818L981.279 935.111C986.633 935.722 992.032 934.434 996.534 931.471L1243.95 768.621C1250.77 764.131 1254.7 756.36 1254.27 748.205L1242.22 518.155C1241.79 510 1237.07 502.683 1229.81 498.93L966.732 362.834C961.946 360.358 956.442 359.641 951.181 360.809L630.287 432.035C624.029 433.424 618.634 437.362 615.404 442.899L488.545 660.364Z" stroke="url(#paint32_linear_3_108)" stroke-width="4"/>
<path opacity="0.492754" d="M471.741 640.04C466.762 647.676 466.762 657.532 471.741 665.167L608.022 874.149C611.531 879.529 617.131 883.197 623.465 884.265L943.348 938.183C948.688 939.083 954.175 938.07 958.842 935.321L1211.07 786.778C1218.09 782.645 1222.4 775.106 1222.4 766.96L1222.4 538.247C1222.4 530.101 1218.09 522.563 1211.07 518.429L958.842 369.886C954.175 367.138 948.688 366.124 943.348 367.025L623.465 420.943C617.131 422.01 611.531 425.678 608.022 431.059L471.741 640.04Z" stroke="url(#paint33_linear_3_108)" stroke-width="4"/>
<path opacity="0.507246" d="M456.004 620.266C450.677 627.61 450.164 637.398 454.694 645.258L578.149 859.449C581.363 865.026 586.768 869 593.05 870.407L905.401 940.35C910.713 941.539 916.274 940.807 921.096 938.282L1177.33 804.102C1184.53 800.332 1189.2 793.044 1189.63 784.93L1201.51 558.181C1201.94 550.067 1198.05 542.33 1191.29 537.829L950.48 377.6C945.949 374.585 940.494 373.275 935.087 373.903L617.136 410.813C610.742 411.555 604.951 414.943 601.171 420.153L456.004 620.266Z" stroke="url(#paint34_linear_3_108)" stroke-width="4"/>
<path opacity="0.521739" d="M441.288 601.097C435.631 608.132 434.612 617.825 438.683 625.882L549.146 844.518C552.055 850.276 557.248 854.548 563.459 856.291L867.488 941.619C872.755 943.097 878.378 942.65 883.345 940.356L1142.78 820.55C1150.14 817.152 1155.17 810.133 1156.01 802.073L1179.58 577.898C1180.42 569.838 1176.97 561.927 1170.48 557.074L941.616 385.945C937.234 382.669 931.828 381.063 926.367 381.414L611.242 401.666C604.805 402.08 598.837 405.179 594.794 410.205L441.288 601.097Z" stroke="url(#paint35_linear_3_108)" stroke-width="4"/>
<path opacity="0.536232" d="M427.547 582.583C421.578 589.294 420.062 598.866 423.665 607.093L521.015 829.406C523.608 835.328 528.574 839.885 534.696 841.962L829.657 941.998C834.866 943.765 840.536 943.606 845.638 941.551L1107.48 836.086C1114.98 833.066 1120.34 826.333 1121.61 818.35L1156.61 597.343C1157.88 589.36 1154.86 581.299 1148.66 576.11L932.22 394.891C928.003 391.36 922.66 389.457 917.16 389.528L605.723 393.52C599.258 393.603 593.127 396.403 588.83 401.233L427.547 582.583Z" stroke="url(#paint36_linear_3_108)" stroke-width="4"/>
<path opacity="0.550725" d="M414.732 564.771C408.47 571.145 406.467 580.57 409.595 588.94L493.756 814.162C496.024 820.231 500.746 825.062 506.762 827.468L791.96 941.499C797.094 943.552 802.797 943.686 808.022 941.877L1071.5 850.677C1079.12 848.04 1084.8 841.608 1086.47 833.723L1132.65 616.462C1134.33 608.577 1131.76 600.39 1125.87 594.884L922.266 404.402C918.228 400.624 912.964 398.427 907.438 398.214L600.517 386.386C594.043 386.137 587.763 388.629 583.223 393.251L414.732 564.771Z" stroke="url(#paint37_linear_3_108)" stroke-width="4"/>
<path opacity="0.565217" d="M402.791 547.706C396.256 553.731 393.777 562.983 396.425 571.468L467.364 798.835C469.298 805.034 473.761 810.126 479.653 812.855L754.442 940.134C759.487 942.471 765.208 942.901 770.546 941.345L1034.89 864.291C1042.61 862.041 1048.59 855.926 1050.67 848.162L1107.73 635.204C1109.81 627.44 1107.69 619.153 1102.13 613.346L911.728 414.444C907.884 410.428 902.714 407.94 897.177 407.441L595.563 380.273C589.096 379.691 582.684 381.869 577.91 386.27L402.791 547.706Z" stroke="url(#paint38_linear_3_108)" stroke-width="4"/>
<path opacity="0.57971" d="M391.673 531.43C384.884 537.094 381.942 546.148 384.105 554.72L441.833 783.472C443.426 789.781 447.616 795.121 453.366 798.168L717.151 937.921C722.091 940.539 727.816 941.267 733.254 939.97L997.713 876.903C1005.51 875.044 1011.78 869.26 1014.25 861.638L1081.87 653.52C1084.35 645.897 1082.68 637.535 1077.47 631.448L900.585 424.981C896.947 420.735 891.888 417.96 886.352 417.173L590.801 375.187C584.358 374.272 577.829 376.129 572.832 380.298L391.673 531.43Z" stroke="url(#paint39_linear_3_108)" stroke-width="4"/>
<path opacity="0.594203" d="M381.319 515.981C374.298 521.272 370.908 530.104 372.585 538.735L417.156 768.119C418.4 774.521 422.303 780.094 427.895 783.451L680.133 934.879C684.954 937.773 690.667 938.801 696.194 937.769L960.04 888.493C967.895 887.025 974.426 881.585 977.289 874.125L1055.12 671.363C1057.99 663.903 1056.77 655.49 1051.92 649.144L888.814 435.977C885.397 431.512 880.463 428.453 874.944 427.378L586.17 371.131C579.768 369.884 573.138 371.413 567.93 375.339L381.319 515.981Z" stroke="url(#paint40_linear_3_108)" stroke-width="4"/>
<path opacity="0.608696" d="M371.677 501.39C364.443 506.301 360.62 514.889 361.81 523.551L393.319 752.822C394.209 759.298 397.813 765.089 403.23 768.748L643.431 931.03C648.116 934.195 653.804 935.523 659.408 934.761L921.931 899.039C929.825 897.965 936.601 892.883 939.841 885.605L1027.51 688.69C1030.75 681.412 1030 672.975 1025.51 666.39L876.397 447.395C873.214 442.721 868.421 439.383 862.933 438.019L581.609 368.102C575.265 366.525 568.55 367.722 563.142 371.394L371.677 501.39Z" stroke="url(#paint41_linear_3_108)" stroke-width="4"/>
<path opacity="0.623188" d="M362.684 487.69C355.26 492.212 351.02 500.534 351.725 509.198L370.311 737.626C370.843 744.156 374.134 750.15 379.359 754.103L607.089 926.395C611.625 929.827 617.271 931.456 622.938 930.968L883.454 908.531C891.366 907.85 898.367 903.134 901.973 896.058L999.088 705.459C1002.69 698.383 1002.39 689.947 998.294 683.145L863.318 459.196C860.382 454.324 855.745 450.714 850.303 449.061L577.059 366.094C570.79 364.191 564.006 365.052 558.41 368.46L362.684 487.69Z" stroke="url(#paint42_linear_3_108)" stroke-width="4"/>
<path opacity="0.637681" d="M354.282 474.906C346.69 479.033 342.051 487.067 342.274 495.706L348.115 722.574C348.284 729.138 351.251 735.317 356.268 739.554L571.146 921.003C575.518 924.694 581.109 926.624 586.828 926.414L844.673 916.957C852.584 916.666 859.79 912.328 863.748 905.472L969.888 721.633C973.846 714.777 974 706.367 970.296 699.371L849.564 471.342C846.887 466.285 842.42 462.407 837.036 460.466L572.459 365.101C566.281 362.875 559.446 363.395 553.677 366.531L354.282 474.906Z" stroke="url(#paint43_linear_3_108)" stroke-width="4"/>
<path opacity="0.652174" d="M346.412 463.061C338.673 466.786 333.654 474.514 333.398 483.1L326.712 707.708C326.516 714.287 329.148 720.635 333.942 725.145L535.643 914.88C539.837 918.825 545.358 921.054 551.115 921.126L805.653 924.31C813.543 924.409 820.933 920.456 825.23 913.839L939.958 737.174C944.255 730.557 944.86 722.198 941.561 715.031L835.122 483.794C832.714 478.564 828.433 474.427 823.123 472.2L567.752 365.109C561.682 362.564 554.813 362.742 548.882 365.596L346.412 463.061Z" stroke="url(#paint44_linear_3_108)" stroke-width="4"/>
<path opacity="0.666667" d="M339.012 452.174C331.147 455.494 325.769 462.897 325.041 471.403L306.082 693.069C305.52 699.642 307.808 706.141 312.364 710.912L500.617 908.058C504.618 912.248 510.053 914.774 515.836 915.131L766.462 930.59C774.311 931.074 781.862 927.514 786.485 921.153L909.343 752.052C913.965 745.69 915.017 737.408 912.131 730.093L819.981 496.511C817.855 491.121 813.773 486.732 808.552 484.222L562.882 366.105C556.936 363.246 550.048 363.079 543.97 365.645L339.012 452.174Z" stroke="url(#paint45_linear_3_108)" stroke-width="4"/>
<path opacity="0.681159" d="M332.019 442.259C324.052 445.171 318.334 452.232 317.142 460.631L286.204 678.694C285.275 685.241 287.21 691.872 291.514 696.893L466.104 900.568C469.898 904.994 475.232 907.815 481.027 908.459L727.162 935.796C734.951 936.661 742.644 933.501 747.575 927.411L878.091 766.237C883.023 760.147 884.514 751.966 882.049 744.527L804.135 509.454C802.3 503.92 798.432 499.289 793.313 496.498L557.79 368.069C551.984 364.903 545.096 364.389 538.884 366.659L332.019 442.259Z" stroke="url(#paint46_linear_3_108)" stroke-width="4"/>
<path opacity="0.695652" d="M325.373 433.33C317.325 435.832 311.29 442.535 309.644 450.8L267.051 664.621C265.756 671.123 267.329 677.867 271.367 683.125L432.136 892.444C435.711 897.098 440.93 900.21 446.723 901.142L687.819 939.936C695.528 941.176 703.34 938.42 708.565 932.618L846.25 779.703C851.475 773.9 853.399 765.843 851.36 758.305L787.577 522.585C786.045 516.921 782.405 512.056 777.403 508.988L552.424 370.979C546.774 367.513 539.902 366.653 533.571 368.62L325.373 433.33Z" stroke="url(#paint47_linear_3_108)" stroke-width="4"/>
<path opacity="0.710145" d="M319.013 425.392C310.906 427.483 304.575 433.814 302.484 441.921L248.599 650.886C246.94 657.321 248.146 664.158 251.904 669.638L398.746 883.722C402.088 888.593 407.176 891.992 412.955 893.214L648.496 943.018C656.107 944.627 664.016 942.279 669.517 936.778L813.87 792.425C819.371 786.924 821.719 779.015 820.11 771.404L770.307 535.863C769.085 530.084 765.685 524.996 760.814 521.654L546.73 374.812C541.25 371.053 534.413 369.848 527.978 371.507L319.013 425.392Z" stroke="url(#paint48_linear_3_108)" stroke-width="4"/>
<path opacity="0.724638" d="M312.875 418.45C304.731 420.131 298.127 426.075 295.605 433.999L230.82 637.521C228.8 643.869 229.63 650.781 233.097 656.469L365.964 874.437C369.059 879.516 374.001 883.198 379.753 884.71L609.254 945.054C616.75 947.024 624.734 945.088 630.493 939.902L781 804.385C786.76 799.199 789.52 791.461 788.344 783.801L752.32 549.249C751.417 543.371 748.272 538.071 743.545 534.461L540.659 379.539C535.365 375.497 528.577 373.948 522.053 375.294L312.875 418.45Z" stroke="url(#paint49_linear_3_108)" stroke-width="4"/>
<path opacity="0.73913" d="M306.897 412.504C298.738 413.776 291.887 419.323 288.947 427.04L213.684 624.559C211.306 630.799 211.758 637.765 214.922 643.646L333.813 864.63C336.651 869.904 341.434 873.863 347.145 875.666L570.156 946.061C577.517 948.385 585.554 946.861 591.553 942.002L747.691 815.564C753.691 810.706 756.853 803.162 756.111 795.478L733.62 562.705C733.044 556.744 730.165 551.242 725.596 547.37L534.16 385.131C529.066 380.814 522.346 378.924 515.748 379.952L306.897 412.504Z" stroke="url(#paint50_linear_3_108)" stroke-width="4"/>
<path opacity="0.753623" d="M301.021 407.549C292.868 408.415 285.793 413.556 282.45 421.042L197.16 612.029C194.431 618.141 194.5 625.14 197.349 631.197L302.322 854.339C304.89 859.796 309.498 864.027 315.154 866.119L531.259 946.061C538.47 948.729 546.538 947.616 552.758 943.096L713.994 825.951C720.215 821.432 723.766 814.103 723.457 806.421L714.208 576.19C713.966 570.163 711.367 564.473 706.97 560.345L527.188 391.556C522.308 386.974 515.673 384.745 509.016 385.452L301.021 407.549Z" stroke="url(#paint51_linear_3_108)" stroke-width="4"/>
<path opacity="0.768116" d="M295.185 403.58C287.06 404.045 279.786 408.769 276.057 416.002L181.218 599.955C178.142 605.921 177.826 612.932 180.351 619.15L271.51 843.605C273.796 849.233 278.216 853.729 283.805 856.11L492.623 945.075C499.667 948.076 507.743 947.375 514.165 943.204L679.961 835.535C686.383 831.365 690.308 824.272 690.431 816.616L694.092 589.666C694.19 583.592 691.881 577.726 687.669 573.348L519.697 398.776C515.043 393.94 508.51 391.377 501.809 391.761L295.185 403.58Z" stroke="url(#paint52_linear_3_108)" stroke-width="4"/>
<path opacity="0.782609" d="M289.332 400.584C281.255 400.652 273.806 404.953 269.708 411.914L165.821 588.367C162.407 594.165 161.704 601.167 163.896 607.528L241.398 832.47C243.392 838.256 247.61 843.009 253.118 845.677L454.301 943.129C461.163 946.453 469.226 946.161 475.829 942.349L645.642 844.307C652.245 840.495 656.529 833.658 657.082 826.054L673.277 603.098C673.72 596.994 671.714 590.965 667.699 586.345L511.646 406.755C507.232 401.676 500.817 398.784 494.089 398.841L289.332 400.584Z" stroke="url(#paint53_linear_3_108)" stroke-width="4"/>
<path opacity="0.797101" d="M283.404 398.548C275.395 398.227 267.797 402.098 263.349 408.766L150.939 577.284C147.195 582.895 146.104 589.867 147.954 596.354L212.004 820.977C213.695 826.907 217.697 831.909 223.11 834.862L416.35 940.255C423.014 943.89 431.042 944.003 437.805 940.557L611.089 852.264C617.852 848.818 622.479 842.257 623.456 834.73L651.774 616.446C652.568 610.331 650.873 604.154 647.069 599.3L502.994 415.452C498.833 410.143 492.551 406.928 485.811 406.658L283.404 398.548Z" stroke="url(#paint54_linear_3_108)" stroke-width="4"/>
<path opacity="0.811594" d="M277.343 397.454C269.423 396.751 261.702 400.189 256.924 406.545L136.533 566.729C132.47 572.135 130.992 579.055 132.492 585.65L183.342 809.168C184.72 815.228 188.492 820.471 193.798 823.705L378.82 936.485C385.272 940.417 393.243 940.93 400.146 937.857L576.351 859.406C583.254 856.332 588.206 850.065 589.601 842.639L629.593 629.677C630.74 623.57 629.367 617.258 625.787 612.179L493.705 424.827C489.808 419.3 483.676 415.768 476.94 415.17L277.343 397.454Z" stroke="url(#paint55_linear_3_108)" stroke-width="4"/>
<path opacity="0.826087" d="M271.098 397.281C263.285 396.205 255.464 399.207 250.378 405.235L122.57 556.719C118.198 561.901 116.335 568.749 117.479 575.432L155.424 797.089C156.48 803.262 160.01 808.738 165.195 812.25L341.759 931.852C347.985 936.07 355.88 936.978 362.9 934.283L541.48 865.733C548.501 863.038 553.76 857.08 555.565 849.78L606.749 642.754C608.252 636.674 607.21 630.243 603.865 624.949L483.745 434.835C480.124 429.103 474.157 425.261 467.441 424.335L271.098 397.281Z" stroke="url(#paint56_linear_3_108)" stroke-width="4"/>
<path opacity="0.84058" d="M264.613 398.008C256.926 396.567 249.034 399.131 243.662 404.815L109.013 547.27C104.343 552.21 102.098 558.964 102.88 565.716L128.259 784.782C128.986 791.054 132.259 796.752 137.312 800.539L305.214 926.398C311.202 930.886 319 932.181 326.117 929.869L506.524 871.251C513.642 868.938 519.189 863.307 521.395 856.156L583.253 655.644C585.114 649.611 584.414 643.077 581.315 637.575L473.083 445.43C469.747 439.507 463.961 435.363 457.28 434.111L264.613 398.008Z" stroke="url(#paint57_linear_3_108)" stroke-width="4"/>
<path opacity="0.855072" d="M257.84 399.604C250.297 397.81 242.357 399.937 236.721 405.262L95.8244 538.397C90.8705 543.077 88.2472 549.715 88.6631 556.518L101.855 772.293C102.243 778.647 105.249 784.557 110.155 788.614L269.229 920.161C274.967 924.906 282.647 926.58 289.839 924.653L471.533 875.968C478.725 874.041 484.539 868.751 487.136 861.773L559.125 668.313C561.346 662.346 560.994 655.726 558.153 650.028L461.69 456.566C458.648 450.466 453.058 446.03 446.427 444.453L257.84 399.604Z" stroke="url(#paint58_linear_3_108)" stroke-width="4"/>
<path opacity="0.869565" d="M250.728 402.043C243.346 399.907 235.386 401.599 229.511 406.553L82.9675 530.111C77.7431 534.515 74.7474 541.016 74.7933 547.849L76.216 759.665C76.2591 766.086 78.9843 772.196 83.7319 776.519L233.844 913.184C239.322 918.17 246.865 920.214 254.11 918.674L436.554 879.895C443.799 878.355 449.859 873.419 452.835 866.636L534.383 680.73C536.962 674.85 536.966 668.159 534.394 662.277L449.54 468.194C446.803 461.933 441.422 457.213 434.858 455.314L250.728 402.043Z" stroke="url(#paint59_linear_3_108)" stroke-width="4"/>
<path opacity="0.884058" d="M243.234 405.29C236.03 402.825 228.072 404.086 221.981 408.656L70.4049 522.419C64.925 526.532 61.5631 532.874 61.2364 539.718L51.3455 746.944C51.0367 753.413 53.4689 759.713 58.0456 764.295L199.099 905.512C204.305 910.725 211.694 913.128 218.97 911.976L401.632 883.045C408.909 881.892 415.193 877.323 418.534 870.757L509.045 692.864C511.982 687.092 512.348 680.349 510.055 674.292L436.612 480.264C434.186 473.856 429.029 468.864 422.547 466.645L243.234 405.29Z" stroke="url(#paint60_linear_3_108)" stroke-width="4"/>
<path opacity="0.898551" d="M235.312 409.313C228.3 406.531 220.371 407.365 214.091 411.543L58.0987 515.331C52.3791 519.137 48.6595 525.3 47.9586 532.134L27.2405 734.175C26.574 740.675 28.7036 747.152 33.0975 751.988L165.028 897.193C169.954 902.615 177.169 905.366 184.454 904.601L366.813 885.434C374.099 884.668 380.584 880.477 384.275 874.149L483.132 704.688C486.425 699.044 487.161 692.265 485.158 686.046L422.886 492.727C420.779 486.188 415.859 480.933 409.474 478.4L235.312 409.313Z" stroke="url(#paint61_linear_3_108)" stroke-width="4"/>
<path opacity="0.913043" d="M226.922 414.072C220.118 410.988 212.239 411.401 205.795 415.179L46.0115 508.85C40.0693 512.334 36.0013 518.298 34.9259 525.101L3.89903 721.4C2.86971 727.913 4.68472 734.554 8.88379 739.638L131.66 888.275C136.299 893.89 143.324 896.977 150.597 896.596L332.139 887.081C339.413 886.7 346.076 882.896 350.103 876.826L456.67 716.171C460.314 710.676 461.425 703.881 459.721 697.512L408.345 505.531C406.564 498.877 401.895 493.371 395.622 490.528L226.922 414.072Z" stroke="url(#paint62_linear_3_108)" stroke-width="4"/>
<path opacity="0.927536" d="M218.025 419.53C211.442 416.159 203.639 416.159 197.056 419.53L34.1081 502.98C27.9608 506.128 23.5526 511.871 22.1032 518.624L-18.6848 708.663C-20.0815 715.171 -18.59 721.965 -14.597 727.289L99.0271 878.807C103.371 884.599 110.189 888.008 117.428 888.008L297.653 888.008C304.893 888.008 311.711 884.599 316.054 878.807L429.678 727.289C433.672 721.964 435.163 715.171 433.766 708.663L392.978 518.624C391.529 511.871 387.121 506.128 380.973 502.98L218.025 419.53Z" stroke="url(#paint63_linear_3_108)" stroke-width="4"/>
<path opacity="0.942029" d="M208.585 425.646C202.237 422.003 194.533 421.599 187.838 424.558L22.3489 497.718C16.0152 500.518 11.2806 506.024 9.45901 512.705L-40.5183 696.009C-42.2858 702.492 -41.1292 709.424 -37.3536 714.982L67.1532 868.841C71.1958 874.793 77.7904 878.51 84.9752 878.887L263.394 888.237C270.579 888.614 277.526 885.606 282.169 880.11L402.186 738.018C406.522 732.884 408.397 726.111 407.316 719.479L376.773 531.955C375.66 525.12 371.527 519.15 365.521 515.703L208.585 425.646Z" stroke="url(#paint64_linear_3_108)" stroke-width="4"/>
<path opacity="0.956522" d="M198.571 432.376C192.468 428.477 184.885 427.68 178.105 430.225L10.6995 493.066C4.19895 495.506 -0.851814 500.752 -3.04274 507.341L-61.6118 683.478C-63.7529 689.917 -62.9412 696.973 -59.3942 702.758L36.0595 858.431C39.7961 864.524 46.1537 868.534 53.2627 869.282L229.4 887.794C236.509 888.541 243.561 885.941 248.483 880.757L374.217 748.332C378.89 743.411 381.15 736.678 380.395 729.935L359.727 545.47C358.953 538.569 355.104 532.387 349.253 528.649L198.571 432.376Z" stroke="url(#paint65_linear_3_108)" stroke-width="4"/>
<path opacity="0.971014" d="M187.952 439.677C182.105 435.538 174.665 434.359 167.826 436.488L-0.875543 489.016C-7.52303 491.086 -12.8754 496.055 -15.4317 502.531L-81.9784 671.112C-84.4951 677.488 -84.0373 684.654 -80.7294 690.657L5.76527 847.627C9.19183 853.846 15.2982 858.133 22.3108 859.244L195.706 886.707C202.719 887.818 209.851 885.627 215.032 880.772L345.8 758.212C350.801 753.525 353.45 746.852 353.027 740.011L341.832 559.116C341.402 552.167 337.847 545.787 332.164 541.764L187.952 439.677Z" stroke="url(#paint66_linear_3_108)" stroke-width="4"/>
<path opacity="0.985507" d="M176.702 447.501C171.122 443.14 163.844 441.593 156.973 443.307L-12.413 485.564C-19.1861 487.254 -24.8258 491.928 -27.7424 498.271L-101.634 658.952C-104.527 665.244 -104.431 672.505 -101.373 678.719L-23.7155 836.486C-20.6018 842.812 -14.7581 847.36 -7.86152 848.826L162.346 885.005C169.242 886.471 176.431 884.693 181.848 880.18L316.961 767.638C322.283 763.206 325.324 756.612 325.24 749.687L323.092 572.843C323.007 565.863 319.756 559.298 314.256 555L176.702 447.501Z" stroke="url(#paint67_linear_3_108)" stroke-width="4"/>
<path d="M164.798 455.803C159.492 451.237 152.396 449.336 145.519 450.637L-23.9451 482.701C-30.8225 484.002 -36.7335 488.365 -40.0042 494.553L-120.594 647.037C-123.864 653.225 -124.139 660.566 -121.34 666.982L-52.371 825.062C-49.572 831.478 -44.0034 836.269 -37.2424 838.081L129.351 882.719C136.112 884.531 143.331 883.166 148.962 879.009L287.732 776.592C293.363 772.436 296.796 765.941 297.058 758.947L303.507 586.597C303.769 579.602 300.831 572.869 295.525 568.303L164.798 455.803Z" stroke="url(#paint68_linear_3_108)" stroke-width="4"/>
<defs>
<linearGradient id="paint0_linear_3_108" x1="1671.91" y1="1200.24" x2="1488.03" y2="39.2221" gradientUnits="userSpaceOnUse">
<stop stop-color="#FF1CF7"/>
<stop offset="1" stop-color="#00F0FF"/>
</linearGradient>
<linearGradient id="paint1_linear_3_108" x1="1620.15" y1="1199.5" x2="1498.36" y2="40.7664" gradientUnits="userSpaceOnUse">
<stop stop-color="#FF1CF7"/>
<stop offset="1" stop-color="#00F0FF"/>
</linearGradient>
<linearGradient id="paint2_linear_3_108" x1="1568.74" y1="1197.17" x2="1508.31" y2="44.0149" gradientUnits="userSpaceOnUse">
<stop stop-color="#FF1CF7"/>
<stop offset="1" stop-color="#00F0FF"/>
</linearGradient>
<linearGradient id="paint3_linear_3_108" x1="1517.78" y1="1193.29" x2="1517.78" y2="48.9305" gradientUnits="userSpaceOnUse">
<stop stop-color="#FF1CF7"/>
<stop offset="1" stop-color="#00F0FF"/>
</linearGradient>
<linearGradient id="paint4_linear_3_108" x1="1467.34" y1="1187.9" x2="1526.69" y2="55.471" gradientUnits="userSpaceOnUse">
<stop stop-color="#FF1CF7"/>
<stop offset="1" stop-color="#00F0FF"/>
</linearGradient>
<linearGradient id="paint5_linear_3_108" x1="1417.51" y1="1181.05" x2="1534.95" y2="63.5901" gradientUnits="userSpaceOnUse">
<stop stop-color="#FF1CF7"/>
<stop offset="1" stop-color="#00F0FF"/>
</linearGradient>
<linearGradient id="paint6_linear_3_108" x1="1368.34" y1="1172.77" x2="1542.49" y2="73.2373" gradientUnits="userSpaceOnUse">
<stop stop-color="#FF1CF7"/>
<stop offset="1" stop-color="#00F0FF"/>
</linearGradient>
<linearGradient id="paint7_linear_3_108" x1="1319.93" y1="1163.12" x2="1549.23" y2="84.3576" gradientUnits="userSpaceOnUse">
<stop stop-color="#FF1CF7"/>
<stop offset="1" stop-color="#00F0FF"/>
</linearGradient>
<linearGradient id="paint8_linear_3_108" x1="1272.33" y1="1152.15" x2="1555.08" y2="96.8928" gradientUnits="userSpaceOnUse">
<stop stop-color="#FF1CF7"/>
<stop offset="1" stop-color="#00F0FF"/>
</linearGradient>
<linearGradient id="paint9_linear_3_108" x1="1225.61" y1="1139.93" x2="1560" y2="110.781" gradientUnits="userSpaceOnUse">
<stop stop-color="#FF1CF7"/>
<stop offset="1" stop-color="#00F0FF"/>
</linearGradient>
<linearGradient id="paint10_linear_3_108" x1="1179.82" y1="1126.51" x2="1563.9" y2="125.957" gradientUnits="userSpaceOnUse">
<stop stop-color="#FF1CF7"/>
<stop offset="1" stop-color="#00F0FF"/>
</linearGradient>
<linearGradient id="paint11_linear_3_108" x1="1135.04" y1="1111.95" x2="1566.73" y2="142.351" gradientUnits="userSpaceOnUse">
<stop stop-color="#FF1CF7"/>
<stop offset="1" stop-color="#00F0FF"/>
</linearGradient>
<linearGradient id="paint12_linear_3_108" x1="1091.3" y1="1096.33" x2="1568.44" y2="159.894" gradientUnits="userSpaceOnUse">
<stop stop-color="#FF1CF7"/>
<stop offset="1" stop-color="#00F0FF"/>
</linearGradient>
<linearGradient id="paint13_linear_3_108" x1="1048.66" y1="1079.71" x2="1568.96" y2="178.511" gradientUnits="userSpaceOnUse">
<stop stop-color="#FF1CF7"/>
<stop offset="1" stop-color="#00F0FF"/>
</linearGradient>
<linearGradient id="paint14_linear_3_108" x1="1007.16" y1="1062.16" x2="1568.27" y2="198.127" gradientUnits="userSpaceOnUse">
<stop stop-color="#FF1CF7"/>
<stop offset="1" stop-color="#00F0FF"/>
</linearGradient>
<linearGradient id="paint15_linear_3_108" x1="966.837" y1="1043.75" x2="1566.3" y2="218.663" gradientUnits="userSpaceOnUse">
<stop stop-color="#FF1CF7"/>
<stop offset="1" stop-color="#00F0FF"/>
</linearGradient>
<linearGradient id="paint16_linear_3_108" x1="927.732" y1="1024.56" x2="1563.02" y2="240.04" gradientUnits="userSpaceOnUse">
<stop stop-color="#FF1CF7"/>
<stop offset="1" stop-color="#00F0FF"/>
</linearGradient>
<linearGradient id="paint17_linear_3_108" x1="889.873" y1="1004.66" x2="1558.41" y2="262.177" gradientUnits="userSpaceOnUse">
<stop stop-color="#FF1CF7"/>
<stop offset="1" stop-color="#00F0FF"/>
</linearGradient>
<linearGradient id="paint18_linear_3_108" x1="853.285" y1="984.135" x2="1552.43" y2="284.992" gradientUnits="userSpaceOnUse">
<stop stop-color="#FF1CF7"/>
<stop offset="1" stop-color="#00F0FF"/>
</linearGradient>
<linearGradient id="paint19_linear_3_108" x1="817.991" y1="963.054" x2="1545.06" y2="308.401" gradientUnits="userSpaceOnUse">
<stop stop-color="#FF1CF7"/>
<stop offset="1" stop-color="#00F0FF"/>
</linearGradient>
<linearGradient id="paint20_linear_3_108" x1="784.009" y1="941.497" x2="1536.28" y2="332.323" gradientUnits="userSpaceOnUse">
<stop stop-color="#FF1CF7"/>
<stop offset="1" stop-color="#00F0FF"/>
</linearGradient>
<linearGradient id="paint21_linear_3_108" x1="751.348" y1="919.542" x2="1526.07" y2="356.672" gradientUnits="userSpaceOnUse">
<stop stop-color="#FF1CF7"/>
<stop offset="1" stop-color="#00F0FF"/>
</linearGradient>
<linearGradient id="paint22_linear_3_108" x1="720.019" y1="897.267" x2="1514.44" y2="381.365" gradientUnits="userSpaceOnUse">
<stop stop-color="#FF1CF7"/>
<stop offset="1" stop-color="#00F0FF"/>
</linearGradient>
<linearGradient id="paint23_linear_3_108" x1="690.025" y1="874.75" x2="1501.37" y2="406.319" gradientUnits="userSpaceOnUse">
<stop stop-color="#FF1CF7"/>
<stop offset="1" stop-color="#00F0FF"/>
</linearGradient>
<linearGradient id="paint24_linear_3_108" x1="661.363" y1="852.067" x2="1486.87" y2="431.451" gradientUnits="userSpaceOnUse">
<stop stop-color="#FF1CF7"/>
<stop offset="1" stop-color="#00F0FF"/>
</linearGradient>
<linearGradient id="paint25_linear_3_108" x1="634.03" y1="829.295" x2="1470.94" y2="456.679" gradientUnits="userSpaceOnUse">
<stop stop-color="#FF1CF7"/>
<stop offset="1" stop-color="#00F0FF"/>
</linearGradient>
<linearGradient id="paint26_linear_3_108" x1="608.015" y1="806.509" x2="1453.59" y2="481.921" gradientUnits="userSpaceOnUse">
<stop stop-color="#FF1CF7"/>
<stop offset="1" stop-color="#00F0FF"/>
</linearGradient>
<linearGradient id="paint27_linear_3_108" x1="583.305" y1="783.782" x2="1434.84" y2="507.1" gradientUnits="userSpaceOnUse">
<stop stop-color="#FF1CF7"/>
<stop offset="1" stop-color="#00F0FF"/>
</linearGradient>
<linearGradient id="paint28_linear_3_108" x1="559.881" y1="761.188" x2="1414.71" y2="532.137" gradientUnits="userSpaceOnUse">
<stop stop-color="#FF1CF7"/>
<stop offset="1" stop-color="#00F0FF"/>
</linearGradient>
<linearGradient id="paint29_linear_3_108" x1="537.722" y1="738.797" x2="1393.22" y2="556.955" gradientUnits="userSpaceOnUse">
<stop stop-color="#FF1CF7"/>
<stop offset="1" stop-color="#00F0FF"/>
</linearGradient>
<linearGradient id="paint30_linear_3_108" x1="516.801" y1="716.677" x2="1370.4" y2="581.481" gradientUnits="userSpaceOnUse">
<stop stop-color="#FF1CF7"/>
<stop offset="1" stop-color="#00F0FF"/>
</linearGradient>
<linearGradient id="paint31_linear_3_108" x1="497.09" y1="694.896" x2="1346.28" y2="605.643" gradientUnits="userSpaceOnUse">
<stop stop-color="#FF1CF7"/>
<stop offset="1" stop-color="#00F0FF"/>
</linearGradient>
<linearGradient id="paint32_linear_3_108" x1="478.556" y1="673.518" x2="1320.89" y2="629.373" gradientUnits="userSpaceOnUse">
<stop stop-color="#FF1CF7"/>
<stop offset="1" stop-color="#00F0FF"/>
</linearGradient>
<linearGradient id="paint33_linear_3_108" x1="461.161" y1="652.604" x2="1294.27" y2="652.604" gradientUnits="userSpaceOnUse">
<stop stop-color="#FF1CF7"/>
<stop offset="1" stop-color="#00F0FF"/>
</linearGradient>
<linearGradient id="paint34_linear_3_108" x1="444.867" y1="632.213" x2="1266.48" y2="675.271" gradientUnits="userSpaceOnUse">
<stop stop-color="#FF1CF7"/>
<stop offset="1" stop-color="#00F0FF"/>
</linearGradient>
<linearGradient id="paint35_linear_3_108" x1="429.631" y1="612.401" x2="1237.54" y2="697.316" gradientUnits="userSpaceOnUse">
<stop stop-color="#FF1CF7"/>
<stop offset="1" stop-color="#00F0FF"/>
</linearGradient>
<linearGradient id="paint36_linear_3_108" x1="415.408" y1="593.223" x2="1207.52" y2="718.681" gradientUnits="userSpaceOnUse">
<stop stop-color="#FF1CF7"/>
<stop offset="1" stop-color="#00F0FF"/>
</linearGradient>
<linearGradient id="paint37_linear_3_108" x1="402.149" y1="574.727" x2="1176.46" y2="739.312" gradientUnits="userSpaceOnUse">
<stop stop-color="#FF1CF7"/>
<stop offset="1" stop-color="#00F0FF"/>
</linearGradient>
<linearGradient id="paint38_linear_3_108" x1="389.804" y1="556.96" x2="1144.42" y2="759.159" gradientUnits="userSpaceOnUse">
<stop stop-color="#FF1CF7"/>
<stop offset="1" stop-color="#00F0FF"/>
</linearGradient>
<linearGradient id="paint39_linear_3_108" x1="378.32" y1="539.966" x2="1111.45" y2="778.175" gradientUnits="userSpaceOnUse">
<stop stop-color="#FF1CF7"/>
<stop offset="1" stop-color="#00F0FF"/>
</linearGradient>
<linearGradient id="paint40_linear_3_108" x1="367.643" y1="523.784" x2="1077.62" y2="796.319" gradientUnits="userSpaceOnUse">
<stop stop-color="#FF1CF7"/>
<stop offset="1" stop-color="#00F0FF"/>
</linearGradient>
<linearGradient id="paint41_linear_3_108" x1="357.716" y1="508.451" x2="1042.98" y2="813.549" gradientUnits="userSpaceOnUse">
<stop stop-color="#FF1CF7"/>
<stop offset="1" stop-color="#00F0FF"/>
</linearGradient>
<linearGradient id="paint42_linear_3_108" x1="348.481" y1="493.999" x2="1007.59" y2="829.833" gradientUnits="userSpaceOnUse">
<stop stop-color="#FF1CF7"/>
<stop offset="1" stop-color="#00F0FF"/>
</linearGradient>
<linearGradient id="paint43_linear_3_108" x1="339.88" y1="480.457" x2="971.526" y2="845.138" gradientUnits="userSpaceOnUse">
<stop stop-color="#FF1CF7"/>
<stop offset="1" stop-color="#00F0FF"/>
</linearGradient>
<linearGradient id="paint44_linear_3_108" x1="331.851" y1="467.85" x2="934.845" y2="859.439" gradientUnits="userSpaceOnUse">
<stop stop-color="#FF1CF7"/>
<stop offset="1" stop-color="#00F0FF"/>
</linearGradient>
<linearGradient id="paint45_linear_3_108" x1="324.334" y1="456.199" x2="897.613" y2="872.711" gradientUnits="userSpaceOnUse">
<stop stop-color="#FF1CF7"/>
<stop offset="1" stop-color="#00F0FF"/>
</linearGradient>
<linearGradient id="paint46_linear_3_108" x1="317.266" y1="445.522" x2="859.899" y2="884.937" gradientUnits="userSpaceOnUse">
<stop stop-color="#FF1CF7"/>
<stop offset="1" stop-color="#00F0FF"/>
</linearGradient>
<linearGradient id="paint47_linear_3_108" x1="310.586" y1="435.832" x2="821.767" y2="896.102" gradientUnits="userSpaceOnUse">
<stop stop-color="#FF1CF7"/>
<stop offset="1" stop-color="#00F0FF"/>
</linearGradient>
<linearGradient id="paint48_linear_3_108" x1="304.231" y1="427.139" x2="783.287" y2="906.195" gradientUnits="userSpaceOnUse">
<stop stop-color="#FF1CF7"/>
<stop offset="1" stop-color="#00F0FF"/>
</linearGradient>
<linearGradient id="paint49_linear_3_108" x1="298.138" y1="419.448" x2="744.524" y2="915.209" gradientUnits="userSpaceOnUse">
<stop stop-color="#FF1CF7"/>
<stop offset="1" stop-color="#00F0FF"/>
</linearGradient>
<linearGradient id="paint50_linear_3_108" x1="292.246" y1="412.763" x2="705.545" y2="923.144" gradientUnits="userSpaceOnUse">
<stop stop-color="#FF1CF7"/>
<stop offset="1" stop-color="#00F0FF"/>
</linearGradient>
<linearGradient id="paint51_linear_3_108" x1="286.494" y1="407.081" x2="666.416" y2="930" gradientUnits="userSpaceOnUse">
<stop stop-color="#FF1CF7"/>
<stop offset="1" stop-color="#00F0FF"/>
</linearGradient>
<linearGradient id="paint52_linear_3_108" x1="280.82" y1="402.398" x2="627.203" y2="935.782" gradientUnits="userSpaceOnUse">
<stop stop-color="#FF1CF7"/>
<stop offset="1" stop-color="#00F0FF"/>
</linearGradient>
<linearGradient id="paint53_linear_3_108" x1="275.164" y1="398.704" x2="587.97" y2="940.5" gradientUnits="userSpaceOnUse">
<stop stop-color="#FF1CF7"/>
<stop offset="1" stop-color="#00F0FF"/>
</linearGradient>
<linearGradient id="paint54_linear_3_108" x1="269.469" y1="395.988" x2="548.781" y2="944.168" gradientUnits="userSpaceOnUse">
<stop stop-color="#FF1CF7"/>
<stop offset="1" stop-color="#00F0FF"/>
</linearGradient>
<linearGradient id="paint55_linear_3_108" x1="263.676" y1="394.233" x2="509.696" y2="946.802" gradientUnits="userSpaceOnUse">
<stop stop-color="#FF1CF7"/>
<stop offset="1" stop-color="#00F0FF"/>
</linearGradient>
<linearGradient id="paint56_linear_3_108" x1="257.73" y1="393.421" x2="470.775" y2="948.423" gradientUnits="userSpaceOnUse">
<stop stop-color="#FF1CF7"/>
<stop offset="1" stop-color="#00F0FF"/>
</linearGradient>
<linearGradient id="paint57_linear_3_108" x1="251.577" y1="393.53" x2="432.077" y2="949.054" gradientUnits="userSpaceOnUse">
<stop stop-color="#FF1CF7"/>
<stop offset="1" stop-color="#00F0FF"/>
</linearGradient>
<linearGradient id="paint58_linear_3_108" x1="245.164" y1="394.534" x2="393.658" y2="948.722" gradientUnits="userSpaceOnUse">
<stop stop-color="#FF1CF7"/>
<stop offset="1" stop-color="#00F0FF"/>
</linearGradient>
<linearGradient id="paint59_linear_3_108" x1="238.442" y1="396.406" x2="355.572" y2="947.457" gradientUnits="userSpaceOnUse">
<stop stop-color="#FF1CF7"/>
<stop offset="1" stop-color="#00F0FF"/>
</linearGradient>
<linearGradient id="paint60_linear_3_108" x1="231.363" y1="399.114" x2="317.869" y2="945.294" gradientUnits="userSpaceOnUse">
<stop stop-color="#FF1CF7"/>
<stop offset="1" stop-color="#00F0FF"/>
</linearGradient>
<linearGradient id="paint61_linear_3_108" x1="223.881" y1="402.626" x2="280.6" y2="942.266" gradientUnits="userSpaceOnUse">
<stop stop-color="#FF1CF7"/>
<stop offset="1" stop-color="#00F0FF"/>
</linearGradient>
<linearGradient id="paint62_linear_3_108" x1="215.954" y1="406.905" x2="243.809" y2="938.413" gradientUnits="userSpaceOnUse">
<stop stop-color="#FF1CF7"/>
<stop offset="1" stop-color="#00F0FF"/>
</linearGradient>
<linearGradient id="paint63_linear_3_108" x1="207.541" y1="411.914" x2="207.541" y2="933.777" gradientUnits="userSpaceOnUse">
<stop stop-color="#FF1CF7"/>
<stop offset="1" stop-color="#00F0FF"/>
</linearGradient>
<linearGradient id="paint64_linear_3_108" x1="198.604" y1="417.612" x2="171.835" y2="928.399" gradientUnits="userSpaceOnUse">
<stop stop-color="#FF1CF7"/>
<stop offset="1" stop-color="#00F0FF"/>
</linearGradient>
<linearGradient id="paint65_linear_3_108" x1="189.11" y1="423.958" x2="136.729" y2="922.325" gradientUnits="userSpaceOnUse">
<stop stop-color="#FF1CF7"/>
<stop offset="1" stop-color="#00F0FF"/>
</linearGradient>
<linearGradient id="paint66_linear_3_108" x1="179.025" y1="430.907" x2="102.257" y2="915.603" gradientUnits="userSpaceOnUse">
<stop stop-color="#FF1CF7"/>
<stop offset="1" stop-color="#00F0FF"/>
</linearGradient>
<linearGradient id="paint67_linear_3_108" x1="168.323" y1="438.415" x2="68.4499" y2="908.28" gradientUnits="userSpaceOnUse">
<stop stop-color="#FF1CF7"/>
<stop offset="1" stop-color="#00F0FF"/>
</linearGradient>
<linearGradient id="paint68_linear_3_108" x1="156.976" y1="446.434" x2="35.3347" y2="900.407" gradientUnits="userSpaceOnUse">
<stop stop-color="#FF1CF7"/>
<stop offset="1" stop-color="#00F0FF"/>
</linearGradient>
</defs>
</svg>
